#!OML:ASF H:\Terrain\Patient Classification 1\Animal1\Tuesday\Animal1.ASF
:FULLY-SPECIFIED
:DEGREES
2633
root 3.98558 16.1622 1.49279 -350.383 -8.3296 5.79122
lowerback 20.247 -4.17939 0.914116
upperback 7.92874 -5.27662 -0.182358
thorax -2.80287 -2.59349 0.456808
lowerneck -9.07346 0.245359 -8.01203
upperneck -15.8889 1.29543 5.32335
head -3.36914 0.871354 2.96803
rclavicle 8.88567e-014 -1.13307e-014
rhumerus -3.469 70.5775 -91.1784
rradius 33.3708
rwrist -23.8627
rhand -15.8814 18.7389
rfingers 7.12502
rthumb 10.3146 -10.9882
lclavicle 8.88567e-014 -1.13307e-014
lhumerus -13.1111 -31.7033 86.5374
lradius 32.3251
lwrist -22.0147
lhand 3.73566 44.7344
lfingers 7.12502
lthumb 29.1633 432.47
rfemur -38.1156 6.40011 17.4763
rtibia 44.0814
rfoot -14.9492 -21.0251
rtoes 13.7127
lfemur -31.2394 0.0238705 -8.69892
ltibia 41.2471
lfoot -3.54672 4.2892
ltoes -1.51631
2634
root 3.95485 16.1748 1.52608 -350.888 -8.51249 5.51861
lowerback 20.2375 -4.00054 0.978564
upperback 7.9323 -5.03233 -0.08672
thorax -2.79005 -2.47511 0.466587
lowerneck -9.46112 0.172233 -7.69409
upperneck -15.453 1.13308 4.87214
head -3.54961 0.806153 3.01075
rclavicle 1.0138e-014 -1.27222e-014
rhumerus -4.33013 72.2213 -91.1319
rradius 32.9261
rwrist -22.89
rhand -20.1413 24.7894
rfingers 7.12502
rthumb 6.20343 -5.09976
lclavicle 1.0138e-014 -1.27222e-014
lhumerus -13.7206 -32.8887 86.8143
lradius 32.9526
lwrist -20.9978
lhand 4.3055 44.6802
lfingers 7.12502
lthumb 29.7073 432.32
rfemur -37.0816 6.78405 17.9609
rtibia 43.6728
rfoot -14.7776 -21.1972
rtoes 12.768
lfemur -30.6691 0.489448 -8.66453
ltibia 41.5081
lfoot -3.63119 3.8133
ltoes -5.06594
2635
root 3.94622 16.1932 1.57295 -350.606 -8.50264 5.42467
lowerback 18.9574 -3.96791 1.52625
upperback 7.82775 -4.92484 -0.165407
thorax -2.30015 -2.41533 -0.0266785
lowerneck -9.53345 0.0807219 -7.29538
upperneck -15.5042 0.953074 4.53463
head -3.53002 0.703612 2.8163
rclavicle -2.44505e-014 -6.16232e-015
rhumerus -4.87028 72.2903 -91.2103
rradius 33.1668
rwrist -23.3767
rhand -19.8121 24.5743
rfingers 7.12502
rthumb 6.52126 -5.3053
lclavicle -2.44505e-014 -6.16232e-015
lhumerus -13.9874 -33.517 87.0649
lradius 32.8989
lwrist -20.8194
lhand 4.92946 43.9334
lfingers 7.12502
lthumb 30.3027 431.465
rfemur -37.0206 6.82479 17.9691
rtibia 43.2031
rfoot -14.302 -21.3346
rtoes 11.0946
lfemur -31.2105 0.0459875 -8.81536
ltibia 41.7959
lfoot -3.5202 3.99775
ltoes -7.66335
2636
root 3.93243 16.2069 1.60661 -350.697 -8.4087 5.13721
lowerback 18.4853 -3.9623 2.00423
upperback 7.7226 -4.84848 -0.141807
thorax -2.20412 -2.37066 -0.310586
lowerneck -9.41786 0.0914699 -7.28335
upperneck -15.7994 0.977872 4.67408
head -3.66081 0.713218 2.86854
rclavicle 4.01545e-014 1.74931e-014
rhumerus -5.48242 72.456 -91.452
rradius 33.333
rwrist -23.5322
rhand -19.4547 24.7049
rfingers 7.12502
rthumb 6.86622 -5.1638
lclavicle 4.01545e-014 1.74931e-014
lhumerus -14.31 -33.5829 87.3344
lradius 32.9455
lwrist -21.1365
lhand 5.35544 43.8352
lfingers 7.12502
lthumb 30.7089 431.292
rfemur -36.4874 6.94238 18.3138
rtibia 42.6888
rfoot -14.0295 -21.5451
rtoes 10.0783
lfemur -31.3141 -0.119105 -8.65036
ltibia 42.0977
lfoot -3.66784 3.7973
ltoes -2.50799
2637
root 3.91388 16.2198 1.63547 -350.845 -8.43634 4.77417
lowerback 18.2062 -3.91105 2.24064
upperback 7.64959 -4.74618 0.0124979
thorax -2.14044 -2.31933 -0.316275
lowerneck -9.34135 0.154226 -7.54849
upperneck -16.522 1.15578 5.17871
head -3.50709 0.78605 2.85278
rclavicle 4.49253e-014 -1.74931e-014
rhumerus -6.04063 72.5619 -91.6563
rradius 33.368
rwrist -23.249
rhand -19.7251 24.8119
rfingers 7.12502
rthumb 6.60521 -5.06505
lclavicle 4.49253e-014 -1.74931e-014
lhumerus -14.5466 -33.1242 87.6448
lradius 33.0004
lwrist -21.581
lhand 5.0015 44.0904
lfingers 7.12502
lthumb 30.3714 431.61
rfemur -35.853 7.18541 18.7664
rtibia 42.2142
rfoot -14.3724 -21.4733
rtoes 11.1881
lfemur -31.2183 -0.097008 -8.36474
ltibia 42.3509
lfoot -3.95283 3.7179
ltoes 3.51498
2638
root 3.8872 16.2373 1.66332 -350.757 -8.30316 4.52993
lowerback 17.6859 -3.97111 2.22475
upperback 7.38546 -4.83063 0.282048
thorax -2.13019 -2.36718 -0.0312081
lowerneck -9.26168 0.225952 -7.91569
upperneck -16.6027 1.28659 5.3248
head -3.55552 0.866576 2.95952
rclavicle -3.10104e-014 3.29983e-014
rhumerus -7.57186 72.9198 -92.6906
rradius 33.4418
rwrist -23.2323
rhand -19.4928 24.1188
rfingers 7.12502
rthumb 6.82942 -5.75105
lclavicle -3.10104e-014 3.29983e-014
lhumerus -15.134 -32.8641 88.2062
lradius 33.0304
lwrist -21.4499
lhand 3.88618 44.3027
lfingers 7.12502
lthumb 29.307 432.013
rfemur -35.4835 7.28976 19.1032
rtibia 41.8357
rfoot -14.8336 -21.4399
rtoes 12.9023
lfemur -31.3544 0.0649718 -8.27475
ltibia 42.4638
lfoot -3.61237 3.68961
ltoes -3.83838
2639
root 3.85805 16.2509 1.68981 -350.644 -7.957 4.60819
lowerback 17.1293 -4.05769 1.95919
upperback 6.91089 -4.98449 0.581426
thorax -2.30007 -2.45353 0.442047
lowerneck -8.48902 0.271629 -8.49649
upperneck -16.8661 1.33837 5.43537
head -3.76532 0.915079 3.08975
rclavicle 3.67752e-014 -3.18055e-014
rhumerus -10.4478 73.3441 -94.806
rradius 33.5511
rwrist -23.5401
rhand -19.2887 23.8442
rfingers 7.12502
rthumb 7.02645 -6.01916
lclavicle 3.67752e-014 -3.18055e-014
lhumerus -16.2281 -32.8157 89.2177
lradius 33.1483
lwrist -21.3281
lhand 2.87558 44.4398
lfingers 7.12502
lthumb 28.3417 432.315
rfemur -35.2309 7.08556 19.1535
rtibia 41.5421
rfoot -14.8415 -21.5886
rtoes 13.4316
lfemur -31.5447 0.0724657 -8.51521
ltibia 42.4449
lfoot -3.18481 3.47137
ltoes -12.5411
